{"title":"Edison 2005.480i.DVDRip.5.1.H.263 . NVEE","uid":9707780,"size":1985182478,"categoryP":"video","categoryS":"movies","magnet":"?xt=urn:btih:afd526a7e4f96614643922ac161d198d2ed39cff&amp;dn=Edison+2005.480i.DVDRip.5.1.H.263+.+NVEE&amp;tr=udp%3A%2F%2Ftracker.openbittorrent.com%3A80&amp;tr=udp%3A%2F%2Fopen.demonii.com%3A1337&amp;tr=udp%3A%2F%2Ftracker.coppersurfer.tk%3A6969&amp;tr=udp%3A%2F%2Fexodus.desync.com%3A6969","seeders":2,"leechers":1,"uploader":".NVEE","files":-1,"time":1394074293,"description":"\nFULL_INFOs\n\n\n99.99% SYNCED GUARANTEED\n\n\n&quot;Totally scrutinized / analyzed to be a verified torrent.&quot;\n\n___________________________________________\n\nSource : DVD\n\nMy Media Player of Choice &quot;VLC Media Player via HDMI&quot;\n\nSpoken Language : English Only\n\nAudio : 6 &amp; 2 Channels (Choose in your preferred media player)\n\n\nSubs Info : English ~ .srt &amp; DXSA\n\nNote : Subtitles do not play automatically on this torrent release in VLC media player (go into options &amp; select manually)\nAll .srt &amp; .idx subs can be turned On/Off\n\nID : 3\nFormat : DXSA\nCodec ID : DXSA\nWidth : 1 440 pixels\nHeight : 1 080 pixels\nDisplay aspect ratio : 4:3\nStream size : 1.27 MiB (0%)\nTitle : Subtitle\n_____________________________________\n\n\n &lt;a href=&quot;\nhttp://www.imdb.com/title/tt0389957/&quot; rel=&quot;nofollow&quot; target=&quot;_NEW&quot;&gt;\nhttp://www.imdb.com/title/tt0389957/&lt;/a&gt;\n\n\n\n---------------------------------------------------------------------------------\n\n\nGeneral Metadata\n\nComplete name : Edison 2005.480i.DVDRip.5.1.H.263 . NVEE.divx\nFormat : AVI\nFormat/Info : Audio Video Interleave\nFormat profile : OpenDML\nFile size : 1.85 GiB\nDuration : 1h 35mn\nOverall bit rate : 2 783 Kbps\nWriting application : DivX 3.4.1.0004\nIDFV : DMF 2.0.0\n\n\nVideo\n\nID : 0\nFormat : MPEG-4 Visual\nFormat settings, BVOP : 1\nFormat settings, QPel : No\nFormat settings, GMC : No warppoints\nFormat settings, Matrix : Default (H.263)\nMuxing mode : Packed bitstream\nCodec ID : DX50\nCodec ID/Hint : DivX 5\nDuration : 1h 35mn\nBit rate : 2 097 Kbps\nWidth : 1 024 pixels\nHeight : 444 pixels\nDisplay aspect ratio : 2.35:1\nFrame rate : 25.000 fps\nColor space : YUV\nChroma subsampling : 4:2:0\nBit depth : 8 bits\nScan type : Progressive\nCompression mode : Lossy\nBits/(Pixel*Frame) : 0.185\nStream size : 1.39 GiB (75%)\nTitle : Video\nWriting library : DivX 3330\n\n\nAudio\n\nID : 1\nFormat : AC-3\nFormat/Info : Audio Coding 3\nMode extension : CM (complete main)\nFormat settings, Endianness : Big\nCodec ID : 2000\nDuration : 1h 35mn\nBit rate mode : Constant\nBit rate : 448 Kbps\nChannel(s) : 6 channels\nChannel positions : Front: L C R, Side: L R, LFE\nSampling rate : 48.0 KHz\nBit depth : 16 bits\nCompression mode : Lossy\nStream size : 305 MiB (16%)\nAlignment : Split accross interleaves\nInterleave, duration : 40 ms (1.00 video frame)\nInterleave, preload duration : 500 ms\nTitle : Audio \n\nID : 2\nFormat : AC-3\nFormat/Info : Audio Coding 3\nMode extension : CM (complete main)\nFormat settings, Endianness : Big\nCodec ID : 2000\nDuration : 1h 35mn\nBit rate mode : Constant\nBit rate : 224 Kbps\nChannel(s) : 2 channels\nChannel positions : Front: L R\nSampling rate : 48.0 KHz\nBit depth : 16 bits\nCompression mode : Lossy\nStream size : 152 MiB (8%)\nAlignment : Split accross interleaves\nInterleave, duration : 40 ms (1.00 video frame)\nInterleave, preload duration : 500 ms\nTitle : Audio\n\n\nSynopsis\n\nIn Edison, there is a force of corrupt cops called F.R.A.T, and the policemen who work for F.R.A.T are above the law. That is, until Joshua Pollack, an Edison journalist discovers a glitch in the system. Now, with the help of those who he trusts, he might be able to take F.R.A.T down.\n\nEnj0y !","torrent":{"xt":"urn:btih:afd526a7e4f96614643922ac161d198d2ed39cff","amp;dn":"Edison+2005.480i.DVDRip.5.1.H.263+.+NVEE","amp;tr":["udp%3A%2F%2Ftracker.openbittorrent.com%3A80","udp%3A%2F%2Fopen.demonii.com%3A1337","udp%3A%2F%2Ftracker.coppersurfer.tk%3A6969","udp%3A%2F%2Fexodus.desync.com%3A6969"],"infoHash":"afd526a7e4f96614643922ac161d198d2ed39cff","infoHashBuffer":{"type":"Buffer","data":[175,213,38,167,228,249,102,20,100,57,34,172,22,29,25,141,46,211,156,255]},"announce":[],"urlList":[]}}